<?xml version="1.0" encoding="utf-8"?>
<!-- Generator: Adobe Illustrator 25.4.0, SVG Export Plug-In . SVG Version: 6.00 Build 0)  -->
<svg version="1.1" id="Layer_1" xmlns="http://www.w3.org/2000/svg" xmlns:xlink="http://www.w3.org/1999/xlink" x="0px" y="0px"
	 viewBox="0 0 800 600" style="enable-background:new 0 0 800 600;" xml:space="preserve">
<style type="text/css">
	.st0{fill:url(#Vector_120_00000103958938793685746000000002306855463771143567_);}
	.st1{fill:#E8EAF6;}
	.st2{fill:url(#Vector_30_00000161622244595779134030000004851654617171907254_);stroke:#000000;stroke-linejoin:round;}
	.st3{fill:#FFFFFF;stroke:#000000;stroke-linejoin:round;}
	.st4{stroke:#000000;stroke-linejoin:round;}
	.st5{fill:none;stroke:#000000;stroke-linejoin:round;}
	.st6{fill:url(#Vector_27_00000178177089946094853890000014957732362719273394_);stroke:#000000;stroke-linejoin:round;}
	.st7{fill-rule:evenodd;clip-rule:evenodd;}
	.st8{fill:url(#Vector_28_00000062910276220900603590000008141955101208689842_);stroke:#000000;stroke-linejoin:round;}
	.st9{fill:url(#Vector_29_00000109016792879408449020000001676140114862833029_);stroke:#000000;stroke-linejoin:round;}
	.st10{fill:url(#Vector_8_00000039115351688023426670000004278416950941546678_);stroke:#000000;stroke-linejoin:round;}
	.st11{fill:url(#Vector_8_x5F_2_00000044865482918006977980000012162796477827014833_);stroke:#000000;stroke-linejoin:round;}
	.st12{fill:url(#Vector_8_x5F_3_00000143618840931960740820000002356097030325939075_);stroke:#000000;stroke-linejoin:round;}
	.st13{fill:url(#Vector_8_x5F_4_00000142135045224573747530000011540639475461971888_);stroke:#000000;stroke-linejoin:round;}
	.st14{fill:url(#Union_8_00000003076981414397427430000012177423640231830173_);stroke:#000000;stroke-linejoin:round;}
	.st15{fill:url(#Ellipse_2_00000086650895887510813160000012704432453338483079_);stroke:#000000;stroke-linejoin:round;}
	.st16{fill:url(#Union_10_00000084489406358118575600000010278922051545930918_);stroke:#000000;stroke-linejoin:round;}
	.st17{fill:url(#Ellipse_2_x5F_2_00000178181407265579572960000013552728390944916864_);stroke:#000000;stroke-linejoin:round;}
	.st18{fill:url(#Union_12_00000132084094274900022260000011364642928170121912_);stroke:#000000;stroke-linejoin:round;}
	.st19{fill:url(#Ellipse_2_x5F_3_00000101073447232116370600000001989467383812663995_);stroke:#000000;stroke-linejoin:round;}
	.st20{fill:url(#Union_14_00000108989716882499513970000011916882681415563925_);stroke:#000000;stroke-linejoin:round;}
	.st21{fill:url(#Ellipse_2_x5F_4_00000132081554014382402360000012575090415280081075_);stroke:#000000;stroke-linejoin:round;}
	.st22{fill:url(#Union_16_00000060004073914734795660000000016953338447673748_);stroke:#000000;stroke-linejoin:round;}
	.st23{fill:url(#Ellipse_2_x5F_5_00000165212176199388941960000001935378668927954312_);stroke:#000000;stroke-linejoin:round;}
	.st24{fill:none;}
</style>
<g id="investment_growing_with_money_tree">
	<g id="BG">
		
			<linearGradient id="Vector_120_00000006669026607423162890000008344465262487819190_" gradientUnits="userSpaceOnUse" x1="388.5959" y1="452.9999" x2="388.5959" y2="197.3469" gradientTransform="matrix(1 0 0 -1 0 600)">
			<stop  offset="0" style="stop-color:#E8EAF6"/>
			<stop  offset="1" style="stop-color:#FFFFFF"/>
		</linearGradient>
		<path id="Vector_120" style="fill:url(#Vector_120_00000006669026607423162890000008344465262487819190_);" d="M390,325.4
			c54.8,0,34-22.5,97.5-144c38.5-62,125.5-42.5,110,77c-32.9,253.4-310,229.5-382.5,129s-27-206,35.5-206
			C325.6,181.4,321.5,325.4,390,325.4z"/>
		<path id="Vector_121" class="st1" d="M151.3,215.2c15.8,5.6,32.1-15.9,29.3-28.6c-2.5-11.5-19.9-21.3-31.3-8.4
			C137.8,191.1,131.5,208.2,151.3,215.2z"/>
	</g>
	<g id="investment_growing">
		<g id="Group_113">
			<g id="Group_13">
				<g id="Group_64">
					
						<linearGradient id="Vector_30_00000115499330374461083310000012843847294601663166_" gradientUnits="userSpaceOnUse" x1="502.5574" y1="207.8527" x2="704.2003" y2="86.0267" gradientTransform="matrix(1 0 0 -1 0 600)">
						<stop  offset="0" style="stop-color:#F7FF00"/>
						<stop  offset="1" style="stop-color:#DB36A4"/>
					</linearGradient>
					
						<path id="Vector_30" style="fill:url(#Vector_30_00000115499330374461083310000012843847294601663166_);stroke:#000000;stroke-linejoin:round;" d="
						M560.7,387.6l-69.4,39.7l69.4,39.7l69.4-39.7L560.7,387.6z"/>
					<path id="Vector_31" class="st3" d="M491.3,447.1v-19.8l69.4,39.7v19.8L491.3,447.1z"/>
					<path id="Vector_32" class="st4" d="M630.1,447.1v-19.8L560.7,467v19.8L630.1,447.1z"/>
				</g>
				<path id="Vector_24" class="st5" d="M560.7,427.3V189.4"/>
				<path id="Vector_25" class="st5" d="M560.7,348l69.4,39.7V348"/>
				<path id="Vector_26" class="st5" d="M560.7,387.6L491.3,348v-39.7"/>
				
					<linearGradient id="Vector_27_00000002347440892557419550000003213681717398217904_" gradientUnits="userSpaceOnUse" x1="561.519" y1="511" x2="561.519" y2="337.512" gradientTransform="matrix(1 0 0 -1 0 600)">
					<stop  offset="0" style="stop-color:#43C6AC"/>
					<stop  offset="1" style="stop-color:#F8FFAE"/>
				</linearGradient>
				
					<path id="Vector_27" style="fill:url(#Vector_27_00000002347440892557419550000003213681717398217904_);stroke:#000000;stroke-linejoin:round;" d="
					M523.6,219.1V89l75.9,43.4v130.1L523.6,219.1z"/>
				<path id="Union" class="st7" d="M560.2,193.5v3.9l2.5,1.5V195c2.9,1.5,5.3,2,7,1.1c2-1,2.7-3.8,2.5-7.5l0,0l0,0
					c-0.3-3.8-2-7-4.1-9.6c-1.7-2.1-3.7-3.9-5.4-5.2v-13.1c1.8,1.2,3,2.4,3.8,3.7c0.9,1.4,1.5,3.2,1.5,5.6l3.4,2
					c0-3.3-0.8-6.5-2.7-9.4c-1.6-2.4-3.7-4.3-6-5.8v-3.8l-2.5-1.5v3.8c-2.4-1.2-4.5-1.6-6-1c-1.8,0.7-2.7,2.8-2.7,5.6
					c0,2,0.3,3.8,0.9,5.5c0.6,1.8,1.5,3.3,2.5,4.6c1,1.3,2,2.5,3.1,3.5c0.5,0.5,1,1,1.5,1.5l0.2,0.1c0.2,0.2,0.3,0.3,0.5,0.4v14.1
					c-2.2-1.5-3.6-3-4.4-4.4c-1-1.7-1.6-3.8-1.5-6.9l-3.4-2.1c-0.1,3.6,0.6,7.1,2.5,10.4C555,189.4,557.4,191.6,560.2,193.5z
					 M562.7,191.1c2.3,1.2,3.8,1.3,4.7,0.8c1-0.5,1.6-2,1.5-5c-0.2-2.2-1.1-4-2.4-5.6c-1.1-1.3-2.4-2.5-3.7-3.6V191.1z M560.2,171.4
					v-12.3c-1.8-0.9-3-1-3.8-0.7c-0.9,0.4-1.5,1.4-1.5,3.3c0,1.5,0.2,2.6,0.6,3.5c0.3,0.9,0.8,1.7,1.4,2.6c0.6,0.9,1.4,1.7,2.3,2.6
					C559.5,170.7,559.8,171,560.2,171.4z"/>
				
					<linearGradient id="Vector_28_00000067944921498196036380000015007042506020478644_" gradientUnits="userSpaceOnUse" x1="629.0555" y1="317.685" x2="629.0555" y2="243.332" gradientTransform="matrix(1 0 0 -1 0 600)">
					<stop  offset="0" style="stop-color:#43C6AC"/>
					<stop  offset="1" style="stop-color:#F8FFAE"/>
				</linearGradient>
				
					<path id="Vector_28" style="fill:url(#Vector_28_00000067944921498196036380000015007042506020478644_);stroke:#000000;stroke-linejoin:round;" d="
					M612.8,338.1v-55.8l32.5,18.6v55.8L612.8,338.1z"/>
				<path id="Union_2" class="st7" d="M627.4,328.4v1.9l1.3,0.7v-1.9c1.5,0.8,2.7,1,3.5,0.6c1-0.5,1.4-1.9,1.3-3.8l0,0l0,0
					c-0.2-1.9-1-3.5-2.1-4.8c-0.9-1.1-1.9-1.9-2.7-2.6v-6.6c0.9,0.6,1.5,1.2,1.9,1.8c0.5,0.7,0.8,1.6,0.8,2.8l1.7,1
					c0-1.6-0.4-3.3-1.4-4.7c-0.8-1.2-1.8-2.2-3-2.9V308l-1.3-0.7v1.9c-1.2-0.6-2.2-0.8-3-0.5c-0.9,0.4-1.3,1.4-1.3,2.8
					c0,1,0.2,1.9,0.5,2.8c0.3,0.9,0.7,1.6,1.2,2.3c0.5,0.7,1,1.2,1.5,1.8c0.3,0.3,0.5,0.5,0.8,0.8l0.1,0.1c0.1,0.1,0.2,0.2,0.2,0.2
					v7c-1.1-0.8-1.8-1.5-2.2-2.2c-0.5-0.8-0.8-1.9-0.8-3.4l-1.7-1c0,1.8,0.3,3.6,1.3,5.2C624.8,326.3,626,327.4,627.4,328.4z
					 M628.6,327.2c1.2,0.6,1.9,0.7,2.4,0.4c0.5-0.3,0.8-1,0.7-2.5c-0.1-1.1-0.6-2-1.2-2.8c-0.5-0.7-1.2-1.3-1.9-1.8V327.2z
					 M627.4,317.3v-6.1c-0.9-0.4-1.5-0.5-1.9-0.3c-0.5,0.2-0.7,0.7-0.7,1.6c0,0.7,0.1,1.3,0.3,1.8c0.2,0.5,0.4,0.9,0.7,1.3
					c0.3,0.4,0.7,0.8,1.2,1.3C627,317,627.2,317.1,627.4,317.3z"/>
				
					<linearGradient id="Vector_29_00000058553151681926766300000012638858992133390239_" gradientUnits="userSpaceOnUse" x1="490.2645" y1="357.339" x2="490.2645" y2="282.987" gradientTransform="matrix(1 0 0 -1 0 600)">
					<stop  offset="0" style="stop-color:#43C6AC"/>
					<stop  offset="1" style="stop-color:#F8FFAE"/>
				</linearGradient>
				
					<path id="Vector_29" style="fill:url(#Vector_29_00000058553151681926766300000012638858992133390239_);stroke:#000000;stroke-linejoin:round;" d="
					M474,298.4v-55.8l32.5,18.6V317L474,298.4z"/>
				<path id="Union_3" class="st7" d="M488.6,288.7v1.9l1.3,0.7v-1.9c1.5,0.7,2.7,1,3.5,0.6c1-0.5,1.4-1.9,1.3-3.8l0,0l0,0
					c-0.2-1.9-1-3.5-2.1-4.8c-0.9-1.1-1.9-1.9-2.7-2.6v-6.6c0.9,0.6,1.5,1.2,1.9,1.8c0.5,0.7,0.8,1.6,0.8,2.8l1.7,1
					c0-1.6-0.4-3.3-1.4-4.7c-0.8-1.2-1.8-2.2-3-2.9v-1.9l-1.3-0.7v1.9c-1.2-0.6-2.2-0.8-3-0.5c-0.9,0.4-1.3,1.4-1.3,2.8
					c0,1,0.2,1.9,0.5,2.8c0.3,0.9,0.7,1.6,1.2,2.3c0.5,0.7,1,1.2,1.5,1.8c0.3,0.3,0.5,0.5,0.8,0.8l0.1,0.1c0.1,0.1,0.2,0.1,0.2,0.2
					v7c-1.1-0.8-1.8-1.5-2.2-2.2c-0.5-0.8-0.8-1.9-0.8-3.4l-1.7-1c0,1.8,0.3,3.6,1.3,5.2C486,286.7,487.2,287.8,488.6,288.7z
					 M489.8,287.5c1.2,0.6,1.9,0.7,2.4,0.4c0.5-0.3,0.8-1,0.7-2.5c-0.1-1.1-0.6-2-1.2-2.8c-0.5-0.7-1.2-1.3-1.9-1.8V287.5z
					 M488.6,277.6v-6.1c-0.9-0.4-1.5-0.5-1.9-0.3c-0.5,0.2-0.7,0.7-0.7,1.6c0,0.7,0.1,1.3,0.3,1.8c0.2,0.5,0.4,0.9,0.7,1.3
					c0.3,0.4,0.7,0.8,1.2,1.3C488.2,277.3,488.4,277.5,488.6,277.6z"/>
			</g>
			<g id="Group_62">
				<g id="Group_60">
					
						<linearGradient id="Vector_8_00000113313869574507932350000010175795602315815078_" gradientUnits="userSpaceOnUse" x1="280.8426" y1="198.4281" x2="449.9536" y2="105.8521" gradientTransform="matrix(1 0 0 -1 0 600)">
						<stop  offset="0" style="stop-color:#43C6AC"/>
						<stop  offset="1" style="stop-color:#F8FFAE"/>
					</linearGradient>
					
						<path id="Vector_8" style="fill:url(#Vector_8_00000113313869574507932350000010175795602315815078_);stroke:#000000;stroke-linejoin:round;" d="
						M308.8,353.5L199,416.2l164.7,94.1l109.8-62.8L308.8,353.5z"/>
					<path id="Union_4" class="st7" d="M349.4,440.7l4,2.3l3-1.7l-4-2.3c3.3-2.1,5.2-4.3,5.3-6.6c0.1-2.7-2.3-5-6.2-7.1l0,0l0,0
						c-4-1.9-8.4-2.1-12.4-1.5c-3.2,0.5-6.2,1.5-8.6,2.5l-13.5-7.8c2.2-1.1,4.3-1.7,6-1.8c2-0.1,4.2,0.3,6.6,1.8l4.1-2.3
						c-3.4-2-7.2-3-11.3-2.8c-3.4,0.2-6.6,1.2-9.5,2.7l-3.9-2.2l-3,1.7l3.9,2.2c-2.7,1.8-4.3,3.6-4.6,5.5c-0.4,2.3,1.3,4.4,4.1,6.1
						c2,1.2,4.1,1.9,6.2,2.3c2.2,0.4,4.3,0.4,6.2,0.2c1.9-0.2,3.8-0.6,5.4-1.1c0.8-0.2,1.7-0.5,2.5-0.7l0.2-0.1
						c0.2-0.1,0.5-0.1,0.7-0.2l14.5,8.3c-2.8,1.4-5.2,1.9-7.2,1.9c-2.3,0-4.9-0.6-7.9-2.5l-4.1,2.3c3.7,2.2,7.7,3.6,12.2,3.5
						C342.2,443.5,345.9,442.4,349.4,440.7z M348.5,436.7c2.6-1.7,3.6-3.1,3.7-4.3c0.1-1.4-1.1-2.9-4.2-4.5
						c-2.4-1.1-4.8-1.2-7.3-0.8c-2,0.3-4,0.9-5.9,1.7L348.5,436.7z M326.7,427.6l-12.6-7.3c-2,1.3-2.8,2.5-3,3.5
						c-0.2,1.2,0.6,2.3,2.5,3.4c1.5,0.9,2.8,1.3,4,1.5c1.1,0.2,2.2,0.2,3.4,0.1c1.2-0.1,2.6-0.4,4.1-0.8
						C325.6,427.9,326.2,427.7,326.7,427.6z"/>
				</g>
				<g id="Group_61">
					
						<linearGradient id="Vector_8_x5F_2_00000154406410562217183710000009421466721942334596_" gradientUnits="userSpaceOnUse" x1="280.8417" y1="213.2309" x2="449.9537" y2="120.6549" gradientTransform="matrix(1 0 0 -1 0 600)">
						<stop  offset="0" style="stop-color:#43C6AC"/>
						<stop  offset="1" style="stop-color:#F8FFAE"/>
					</linearGradient>
					
						<path id="Vector_8_x5F_2" style="fill:url(#Vector_8_x5F_2_00000154406410562217183710000009421466721942334596_);stroke:#000000;stroke-linejoin:round;" d="
						M308.8,338.7L199,401.4l164.7,94.1l109.8-62.8L308.8,338.7z"/>
					<path id="Union_5" class="st7" d="M349.4,425.9l4,2.3l3-1.7l-4-2.3c3.3-2.1,5.2-4.3,5.3-6.6c0.1-2.7-2.3-5-6.2-7.1l0,0l0,0
						c-4-1.9-8.4-2.1-12.4-1.5c-3.2,0.5-6.2,1.5-8.6,2.5l-13.5-7.8c2.2-1.1,4.3-1.7,6-1.8c2-0.1,4.2,0.3,6.6,1.8l4.1-2.3
						c-3.4-2-7.2-3-11.3-2.8c-3.4,0.2-6.6,1.2-9.5,2.7l-3.9-2.2l-3,1.7l3.9,2.2c-2.7,1.8-4.3,3.6-4.6,5.5c-0.4,2.3,1.3,4.4,4.1,6.1
						c2,1.2,4.1,1.9,6.2,2.3c2.2,0.4,4.3,0.4,6.2,0.2c1.9-0.2,3.8-0.6,5.4-1.1c0.8-0.2,1.7-0.5,2.5-0.7l0.2-0.1
						c0.2-0.1,0.5-0.1,0.7-0.2l14.5,8.3c-2.8,1.4-5.2,1.9-7.2,1.9c-2.3,0-4.9-0.6-7.9-2.5l-4.1,2.3c3.7,2.2,7.7,3.6,12.2,3.5
						C342.2,428.7,345.9,427.6,349.4,425.9z M348.5,421.9c2.6-1.7,3.6-3.1,3.7-4.3c0.1-1.4-1.1-2.9-4.3-4.5
						c-2.4-1.1-4.8-1.2-7.3-0.8c-2,0.3-4,0.9-5.9,1.7L348.5,421.9z M326.7,412.8l-12.6-7.3c-2,1.3-2.8,2.5-3,3.5
						c-0.2,1.2,0.6,2.3,2.5,3.4c1.5,0.9,2.8,1.3,4,1.5c1.1,0.2,2.2,0.2,3.4,0.1c1.2-0.1,2.6-0.4,4.1-0.8
						C325.6,413.1,326.2,412.9,326.7,412.8z"/>
				</g>
				<g id="Group_62_x5F_2">
					
						<linearGradient id="Vector_8_x5F_3_00000058580542752704269530000015270465808116930982_" gradientUnits="userSpaceOnUse" x1="280.8426" y1="228.0751" x2="449.9536" y2="135.4991" gradientTransform="matrix(1 0 0 -1 0 600)">
						<stop  offset="0" style="stop-color:#43C6AC"/>
						<stop  offset="1" style="stop-color:#F8FFAE"/>
					</linearGradient>
					
						<path id="Vector_8_x5F_3" style="fill:url(#Vector_8_x5F_3_00000058580542752704269530000015270465808116930982_);stroke:#000000;stroke-linejoin:round;" d="
						M308.8,323.8L199,386.6l164.7,94.1L473.6,418L308.8,323.8z"/>
					<path id="Union_6" class="st7" d="M349.4,411.1l4,2.3l3-1.7l-4-2.3c3.3-2.1,5.2-4.3,5.3-6.6c0.1-2.7-2.3-5-6.2-7.1l0,0l0,0
						c-4-1.9-8.4-2.1-12.4-1.5c-3.2,0.5-6.2,1.5-8.6,2.5l-13.5-7.8c2.2-1.1,4.3-1.7,6-1.8c2-0.1,4.2,0.3,6.6,1.8l4.1-2.3
						c-3.4-2-7.2-3-11.3-2.8c-3.4,0.2-6.6,1.2-9.5,2.7l-3.9-2.2l-3,1.7l3.9,2.2c-2.7,1.8-4.3,3.6-4.6,5.5c-0.4,2.3,1.3,4.4,4.1,6.1
						c2,1.2,4.1,1.9,6.2,2.3c2.2,0.4,4.3,0.4,6.2,0.2c1.9-0.2,3.8-0.6,5.4-1.1c0.8-0.2,1.7-0.5,2.5-0.7l0.2-0.1
						c0.2-0.1,0.5-0.1,0.7-0.2l14.5,8.3c-2.8,1.4-5.2,1.9-7.2,1.9c-2.3,0-4.9-0.6-7.9-2.5l-4.1,2.3c3.7,2.2,7.7,3.6,12.2,3.5
						C342.2,413.9,345.9,412.8,349.4,411.1z M348.5,407c2.6-1.7,3.6-3.1,3.7-4.3c0.1-1.4-1.1-2.9-4.3-4.5c-2.4-1.1-4.8-1.2-7.3-0.8
						c-2,0.3-4,0.9-5.9,1.7L348.5,407z M326.7,397.9l-12.6-7.3c-2,1.3-2.8,2.5-3,3.5c-0.2,1.2,0.6,2.3,2.5,3.4
						c1.5,0.9,2.8,1.3,4,1.5c1.1,0.2,2.2,0.2,3.4,0.1c1.2-0.1,2.6-0.4,4.1-0.8C325.6,398.2,326.2,398.1,326.7,397.9z"/>
				</g>
				<g id="Group_59">
					
						<linearGradient id="Vector_8_x5F_4_00000183942964276939416800000014850273539349312402_" gradientUnits="userSpaceOnUse" x1="280.8443" y1="242.9025" x2="449.9553" y2="150.3265" gradientTransform="matrix(1 0 0 -1 0 600)">
						<stop  offset="0" style="stop-color:#43C6AC"/>
						<stop  offset="1" style="stop-color:#F8FFAE"/>
					</linearGradient>
					
						<path id="Vector_8_x5F_4" style="fill:url(#Vector_8_x5F_4_00000183942964276939416800000014850273539349312402_);stroke:#000000;stroke-linejoin:round;" d="
						M308.8,309L199,371.8l164.7,94.1l109.8-62.8L308.8,309z"/>
					<path id="Union_7" class="st7" d="M349.4,396.2l4,2.3l3-1.7l-3.9-2.3c3.3-2.1,5.2-4.3,5.3-6.6c0.1-2.7-2.3-5-6.2-7.1l0,0l0,0
						c-4-1.9-8.4-2.1-12.4-1.5c-3.2,0.5-6.2,1.5-8.6,2.5l-13.5-7.8c2.2-1.1,4.3-1.7,6-1.8c2-0.1,4.2,0.3,6.6,1.8l4.1-2.3
						c-3.4-2-7.2-3-11.3-2.8c-3.4,0.2-6.6,1.2-9.5,2.7l-3.9-2.2l-3,1.7l3.9,2.2c-2.7,1.8-4.3,3.6-4.6,5.5c-0.4,2.3,1.3,4.4,4.1,6.1
						c2,1.2,4.1,1.9,6.2,2.3c2.2,0.4,4.3,0.4,6.2,0.2c1.9-0.2,3.8-0.6,5.4-1.1c0.8-0.2,1.7-0.5,2.5-0.7l0.2-0.1
						c0.2-0.1,0.5-0.1,0.7-0.2l14.5,8.3c-2.8,1.4-5.2,1.9-7.2,1.9c-2.3,0-4.9-0.6-7.9-2.5l-4.1,2.3c3.7,2.2,7.7,3.6,12.2,3.5
						C342.2,399,345.9,398,349.4,396.2z M348.5,392.2c2.6-1.7,3.6-3.1,3.7-4.3c0.1-1.4-1.1-2.9-4.3-4.5c-2.4-1.1-4.8-1.2-7.3-0.8
						c-2,0.3-4,0.9-5.9,1.7L348.5,392.2z M326.7,383.1l-12.6-7.3c-2,1.3-2.8,2.5-3,3.5c-0.2,1.2,0.6,2.3,2.5,3.4
						c1.5,0.9,2.8,1.3,4,1.5c1.1,0.2,2.2,0.2,3.4,0.1c1.2-0.1,2.6-0.4,4.1-0.8C325.6,383.4,326.2,383.3,326.7,383.1z"/>
				</g>
			</g>
			<g id="coins">
				<g id="Group_91">
					<g id="Group_7">
						
							<linearGradient id="Union_8_00000031166406498050527170000015905373810768399246_" gradientUnits="userSpaceOnUse" x1="199.8982" y1="203.3443" x2="200.1432" y2="162.1653" gradientTransform="matrix(1 0 0 -1 0 600)">
							<stop  offset="0" style="stop-color:#FFE000"/>
							<stop  offset="1" style="stop-color:#799F0C"/>
						</linearGradient>
						
							<path id="Union_8" style="fill:url(#Union_8_00000031166406498050527170000015905373810768399246_);stroke:#000000;stroke-linejoin:round;" d="
							M173.7,419.5C173.7,419.4,173.7,419.4,173.7,419.5l0-7.2c0,0,0,0,0-0.1c0-3.7,2.5-7.6,7.6-10.5c5.1-3,11.9-4.5,18.7-4.5
							c6.8,0,13.6,1.5,18.7,4.5c5.1,3,7.6,6.8,7.6,10.5c0,0.1,0,0.1,0,0.2v6.9c0,0.1,0,0.1,0,0.2c0,3.7-2.5,7.5-7.6,10.5
							c-5.1,3-11.9,4.5-18.7,4.5c-6.8,0-13.6-1.5-18.7-4.5C176.1,427,173.7,423.2,173.7,419.5z"/>
						
							<linearGradient id="Ellipse_2_00000178898342494872378320000015287893259633568925_" gradientUnits="userSpaceOnUse" x1="0.1221" y1="601.6309" x2="-6.8544" y2="508.4257" gradientTransform="matrix(0.866 -0.5 -0.866 -0.5 719.612 712.148)">
							<stop  offset="0" style="stop-color:#FFE000"/>
							<stop  offset="1" style="stop-color:#799F0C"/>
						</linearGradient>
						
							<ellipse id="Ellipse_2" style="fill:url(#Ellipse_2_00000178898342494872378320000015287893259633568925_);stroke:#000000;stroke-linejoin:round;" cx="200" cy="412.1" rx="26.2" ry="15.1"/>
						<path id="Union_9" class="st7" d="M204.5,415.2l1.2,0.7l0.9-0.5l-1.2-0.7c1-0.6,1.6-1.3,1.6-2c0-0.8-0.7-1.6-1.9-2.2l0,0l0,0
							c-1.3-0.6-2.6-0.6-3.8-0.5c-1,0.2-1.9,0.5-2.7,0.8l-4.2-2.4c0.7-0.3,1.3-0.5,1.9-0.5c0.6,0,1.3,0.1,2.1,0.5l1.3-0.7
							c-1-0.6-2.2-0.9-3.5-0.9c-1.1,0.1-2.1,0.4-3,0.8l-1.2-0.7l-0.9,0.5l1.2,0.7c-0.8,0.5-1.3,1.1-1.4,1.7
							c-0.1,0.7,0.4,1.4,1.3,1.9c0.6,0.4,1.3,0.6,1.9,0.7c0.7,0.1,1.3,0.1,1.9,0.1c0.6-0.1,1.2-0.2,1.7-0.3c0.3-0.1,0.5-0.1,0.8-0.2
							l0.1,0c0.1,0,0.2,0,0.2-0.1l4.5,2.6c-0.9,0.4-1.6,0.6-2.2,0.6c-0.7,0-1.5-0.2-2.5-0.8l-1.3,0.7c1.1,0.7,2.4,1.1,3.8,1.1
							C202.2,416.1,203.4,415.7,204.5,415.2z M204.2,413.9c0.8-0.5,1.1-1,1.1-1.3c0-0.4-0.3-0.9-1.3-1.4c-0.7-0.3-1.5-0.4-2.3-0.3
							c-0.6,0.1-1.2,0.3-1.8,0.5L204.2,413.9z M197.4,411.1l-3.9-2.3c-0.6,0.4-0.9,0.8-0.9,1.1c-0.1,0.4,0.2,0.7,0.8,1.1
							c0.5,0.3,0.9,0.4,1.2,0.5c0.3,0.1,0.7,0.1,1.1,0c0.4,0,0.8-0.1,1.3-0.3C197.1,411.2,197.2,411.2,197.4,411.1z"/>
					</g>
					<g id="Group_62_x5F_3">
						
							<linearGradient id="Union_10_00000056391495659511193150000003650349857434165134_" gradientUnits="userSpaceOnUse" x1="199.8982" y1="218.1813" x2="200.1432" y2="177.0023" gradientTransform="matrix(1 0 0 -1 0 600)">
							<stop  offset="0" style="stop-color:#FFE000"/>
							<stop  offset="1" style="stop-color:#799F0C"/>
						</linearGradient>
						
							<path id="Union_10" style="fill:url(#Union_10_00000056391495659511193150000003650349857434165134_);stroke:#000000;stroke-linejoin:round;" d="
							M173.7,404.6C173.7,404.6,173.7,404.6,173.7,404.6l0-7.2c0,0,0,0,0-0.1c0-3.7,2.5-7.5,7.6-10.5c5.1-3,11.9-4.5,18.7-4.5
							c6.8,0,13.6,1.5,18.7,4.5c5.1,3,7.6,6.8,7.6,10.5c0,0.1,0,0.1,0,0.2v6.9c0,0.1,0,0.1,0,0.2c0,3.7-2.5,7.5-7.6,10.5
							c-5.1,3-11.9,4.5-18.7,4.5c-6.8,0-13.6-1.5-18.7-4.5C176.1,412.2,173.7,408.3,173.7,404.6z"/>
						
							<linearGradient id="Ellipse_2_x5F_2_00000039114322168268036630000004630819919387516818_" gradientUnits="userSpaceOnUse" x1="0.1221" y1="601.6309" x2="-6.8544" y2="508.4257" gradientTransform="matrix(0.866 -0.5 -0.866 -0.5 719.612 697.306)">
							<stop  offset="0" style="stop-color:#FFE000"/>
							<stop  offset="1" style="stop-color:#799F0C"/>
						</linearGradient>
						
							<ellipse id="Ellipse_2_x5F_2" style="fill:url(#Ellipse_2_x5F_2_00000039114322168268036630000004630819919387516818_);stroke:#000000;stroke-linejoin:round;" cx="200" cy="397.3" rx="26.2" ry="15.1"/>
						<path id="Union_11" class="st7" d="M204.5,400.3l1.2,0.7l0.9-0.5l-1.2-0.7c1-0.6,1.6-1.3,1.6-2c0-0.8-0.7-1.6-1.9-2.2l0,0l0,0
							c-1.3-0.6-2.6-0.6-3.8-0.5c-1,0.2-1.9,0.5-2.7,0.8l-4.2-2.4c0.7-0.3,1.3-0.5,1.9-0.5c0.6,0,1.3,0.1,2.1,0.5l1.3-0.7
							c-1-0.6-2.2-0.9-3.5-0.9c-1.1,0.1-2.1,0.4-3,0.8L192,392l-0.9,0.5l1.2,0.7c-0.8,0.5-1.3,1.1-1.4,1.7c-0.1,0.7,0.4,1.4,1.3,1.9
							c0.6,0.4,1.3,0.6,1.9,0.7c0.7,0.1,1.3,0.1,1.9,0.1c0.6-0.1,1.2-0.2,1.7-0.3c0.3-0.1,0.5-0.1,0.8-0.2l0.1,0
							c0.1,0,0.2,0,0.2-0.1l4.5,2.6c-0.9,0.4-1.6,0.6-2.2,0.6c-0.7,0-1.5-0.2-2.5-0.8l-1.3,0.7c1.1,0.7,2.4,1.1,3.8,1.1
							C202.2,401.2,203.4,400.9,204.5,400.3z M204.2,399.1c0.8-0.5,1.1-1,1.1-1.3c0-0.4-0.3-0.9-1.3-1.4c-0.7-0.3-1.5-0.4-2.3-0.3
							c-0.6,0.1-1.2,0.3-1.8,0.5L204.2,399.1z M197.4,396.3l-3.9-2.3c-0.6,0.4-0.9,0.8-0.9,1.1c-0.1,0.4,0.2,0.7,0.8,1.1
							c0.5,0.3,0.9,0.4,1.2,0.5c0.3,0.1,0.7,0.1,1.1,0c0.4,0,0.8-0.1,1.3-0.3C197.1,396.4,197.2,396.3,197.4,396.3z"/>
					</g>
					<g id="Group_63">
						
							<linearGradient id="Union_12_00000021083105962340225630000002082911168029424778_" gradientUnits="userSpaceOnUse" x1="199.8982" y1="233.0143" x2="200.1432" y2="191.8353" gradientTransform="matrix(1 0 0 -1 0 600)">
							<stop  offset="0" style="stop-color:#FFE000"/>
							<stop  offset="1" style="stop-color:#799F0C"/>
						</linearGradient>
						
							<path id="Union_12" style="fill:url(#Union_12_00000021083105962340225630000002082911168029424778_);stroke:#000000;stroke-linejoin:round;" d="
							M173.7,389.8C173.7,389.8,173.7,389.7,173.7,389.8l0-7.2c0,0,0,0,0-0.1c0-3.7,2.5-7.5,7.6-10.5c5.1-3,11.9-4.5,18.7-4.5
							c6.8,0,13.6,1.5,18.7,4.5c5.1,3,7.6,6.8,7.6,10.5c0,0.1,0,0.1,0,0.2v6.9c0,0.1,0,0.1,0,0.2c0,3.7-2.5,7.5-7.6,10.5
							c-5.1,3-11.9,4.5-18.7,4.5c-6.8,0-13.6-1.5-18.7-4.5C176.1,397.3,173.7,393.5,173.7,389.8z"/>
						
							<linearGradient id="Ellipse_2_x5F_3_00000074419465325643892760000014430595337052404875_" gradientUnits="userSpaceOnUse" x1="0.1221" y1="601.6309" x2="-6.8544" y2="508.4257" gradientTransform="matrix(0.866 -0.5 -0.866 -0.5 719.612 682.474)">
							<stop  offset="0" style="stop-color:#FFE000"/>
							<stop  offset="1" style="stop-color:#799F0C"/>
						</linearGradient>
						
							<ellipse id="Ellipse_2_x5F_3" style="fill:url(#Ellipse_2_x5F_3_00000074419465325643892760000014430595337052404875_);stroke:#000000;stroke-linejoin:round;" cx="200" cy="382.5" rx="26.2" ry="15.1"/>
						<path id="Union_13" class="st7" d="M204.5,385.5l1.2,0.7l0.9-0.5l-1.2-0.7c1-0.6,1.6-1.3,1.6-2c0-0.8-0.7-1.6-1.9-2.2l0,0l0,0
							c-1.3-0.6-2.6-0.6-3.8-0.5c-1,0.2-1.9,0.5-2.7,0.8l-4.2-2.4c0.7-0.3,1.3-0.5,1.9-0.5c0.6,0,1.3,0.1,2.1,0.5l1.3-0.7
							c-1-0.6-2.2-0.9-3.5-0.9c-1.1,0.1-2.1,0.4-3,0.8l-1.2-0.7l-0.9,0.5l1.2,0.7c-0.8,0.5-1.3,1.1-1.4,1.7
							c-0.1,0.7,0.4,1.4,1.3,1.9c0.6,0.4,1.3,0.6,1.9,0.7c0.7,0.1,1.3,0.1,1.9,0.1c0.6-0.1,1.2-0.2,1.7-0.3c0.3-0.1,0.5-0.1,0.8-0.2
							l0.1,0c0.1,0,0.2,0,0.2-0.1l4.5,2.6c-0.9,0.4-1.6,0.6-2.2,0.6c-0.7,0-1.5-0.2-2.5-0.8l-1.3,0.7c1.1,0.7,2.4,1.1,3.8,1.1
							C202.2,386.4,203.4,386,204.5,385.5z M204.2,384.2c0.8-0.5,1.1-1,1.1-1.3c0-0.4-0.3-0.9-1.3-1.4c-0.7-0.3-1.5-0.4-2.3-0.3
							c-0.6,0.1-1.2,0.3-1.8,0.5L204.2,384.2z M197.4,381.4l-3.9-2.3c-0.6,0.4-0.9,0.8-0.9,1.1c-0.1,0.4,0.2,0.7,0.8,1.1
							c0.5,0.3,0.9,0.4,1.2,0.5c0.3,0.1,0.7,0.1,1.1,0c0.4,0,0.8-0.1,1.3-0.3C197.1,381.5,197.2,381.5,197.4,381.4z"/>
					</g>
					<g id="Group_64_x5F_2">
						
							<linearGradient id="Union_14_00000164472390076509319010000005146787817873471923_" gradientUnits="userSpaceOnUse" x1="199.8982" y1="247.8513" x2="200.1432" y2="206.6723" gradientTransform="matrix(1 0 0 -1 0 600)">
							<stop  offset="0" style="stop-color:#FFE000"/>
							<stop  offset="1" style="stop-color:#799F0C"/>
						</linearGradient>
						
							<path id="Union_14" style="fill:url(#Union_14_00000164472390076509319010000005146787817873471923_);stroke:#000000;stroke-linejoin:round;" d="
							M173.7,374.9C173.7,374.9,173.7,374.9,173.7,374.9l0-7.2c0,0,0,0,0-0.1c0-3.7,2.5-7.5,7.6-10.5c5.1-3,11.9-4.5,18.7-4.5
							c6.8,0,13.6,1.5,18.7,4.5c5.1,3,7.6,6.8,7.6,10.5c0,0.1,0,0.1,0,0.2v6.9c0,0.1,0,0.1,0,0.2c0,3.7-2.5,7.5-7.6,10.5
							c-5.1,3-11.9,4.5-18.7,4.5c-6.8,0-13.6-1.5-18.7-4.5C176.1,382.5,173.7,378.7,173.7,374.9z"/>
						
							<linearGradient id="Ellipse_2_x5F_4_00000057840390272648805550000003472211038479551401_" gradientUnits="userSpaceOnUse" x1="0.1221" y1="601.6309" x2="-6.8544" y2="508.4257" gradientTransform="matrix(0.866 -0.5 -0.866 -0.5 719.612 667.636)">
							<stop  offset="0" style="stop-color:#FFE000"/>
							<stop  offset="1" style="stop-color:#799F0C"/>
						</linearGradient>
						
							<ellipse id="Ellipse_2_x5F_4" style="fill:url(#Ellipse_2_x5F_4_00000057840390272648805550000003472211038479551401_);stroke:#000000;stroke-linejoin:round;" cx="200" cy="367.6" rx="26.2" ry="15.1"/>
						<path id="Union_15" class="st7" d="M204.5,370.7l1.2,0.7l0.9-0.5l-1.2-0.7c1-0.6,1.6-1.3,1.6-2c0-0.8-0.7-1.6-1.9-2.2l0,0l0,0
							c-1.3-0.6-2.6-0.6-3.8-0.5c-1,0.2-1.9,0.5-2.7,0.8l-4.2-2.4c0.7-0.3,1.3-0.5,1.9-0.5c0.6,0,1.3,0.1,2.1,0.5l1.3-0.7
							c-1-0.6-2.2-0.9-3.5-0.9c-1.1,0.1-2.1,0.4-3,0.8l-1.2-0.7l-0.9,0.5l1.2,0.7c-0.8,0.5-1.3,1.1-1.4,1.7
							c-0.1,0.7,0.4,1.4,1.3,1.9c0.6,0.4,1.3,0.6,1.9,0.7c0.7,0.1,1.3,0.1,1.9,0.1c0.6-0.1,1.2-0.2,1.7-0.3c0.3-0.1,0.5-0.1,0.8-0.2
							l0.1,0c0.1,0,0.2,0,0.2-0.1l4.5,2.6c-0.9,0.4-1.6,0.6-2.2,0.6c-0.7,0-1.5-0.2-2.5-0.8l-1.3,0.7c1.1,0.7,2.4,1.1,3.8,1.1
							C202.2,371.5,203.4,371.2,204.5,370.7z M204.2,369.4c0.8-0.5,1.1-1,1.1-1.3c0-0.4-0.3-0.9-1.3-1.4c-0.7-0.3-1.5-0.4-2.3-0.3
							c-0.6,0.1-1.2,0.3-1.8,0.5L204.2,369.4z M197.4,366.6l-3.9-2.3c-0.6,0.4-0.9,0.8-0.9,1.1c-0.1,0.4,0.2,0.7,0.8,1.1
							c0.5,0.3,0.9,0.4,1.2,0.5c0.3,0.1,0.7,0.1,1.1,0c0.4,0,0.8-0.1,1.3-0.3C197.1,366.7,197.2,366.6,197.4,366.6z"/>
					</g>
				</g>
			</g>
			<g id="Group_70">
				
					<linearGradient id="Union_16_00000044165433842985884190000007917135484225339825_" gradientUnits="userSpaceOnUse" x1="146.0789" y1="178.4275" x2="186.1079" y2="189.1565" gradientTransform="matrix(1 0 0 -1 0 600)">
					<stop  offset="0" style="stop-color:#FFE000"/>
					<stop  offset="1" style="stop-color:#799F0C"/>
				</linearGradient>
				
					<path id="Union_16" style="fill:url(#Union_16_00000044165433842985884190000007917135484225339825_);stroke:#000000;stroke-linejoin:round;" d="
					M177.3,442.8C177.3,442.8,177.3,442.8,177.3,442.8l-7.6,2c0,0,0,0-0.1,0c-3.9,1-8.6-0.5-13.2-5c-4.6-4.6-8-11.2-9.9-18.3
					c-1.9-7.1-2.2-14.6-0.6-20.8c1.7-6.2,5-9.9,8.9-10.9c0.1,0,0.1,0,0.2-0.1l7.3-1.9c0.1,0,0.1,0,0.2,0c3.9-1,8.6,0.5,13.2,5
					c4.6,4.6,8,11.2,9.9,18.3s2.2,14.6,0.6,20.8C184.5,438.1,181.2,441.7,177.3,442.8z"/>
				
					<linearGradient id="Ellipse_2_x5F_5_00000173154553249071959320000009792158445857992576_" gradientUnits="userSpaceOnUse" x1="182.4177" y1="197.1169" x2="106.525" y2="142.9869" gradientTransform="matrix(1 0 0 -1 0 600)">
					<stop  offset="0" style="stop-color:#FFE000"/>
					<stop  offset="1" style="stop-color:#799F0C"/>
				</linearGradient>
				
					<path id="Ellipse_2_x5F_5" style="fill:url(#Ellipse_2_x5F_5_00000173154553249071959320000009792158445857992576_);stroke:#000000;stroke-linejoin:round;" d="
					M145.9,400.8c3.3-12.4,13.4-15.1,22.4-6c9.1,9.1,13.7,26.4,10.4,38.8c-3.3,12.4-13.4,15.1-22.4,6
					C147.2,430.6,142.5,413.2,145.9,400.8z"/>
				<path id="Union_17" class="st7" d="M158.9,423.7l-0.4,1.5l0.8,0.8l0.4-1.5c1,0.9,1.8,1.3,2.6,1.2c0.9-0.2,1.4-1.2,1.8-2.6l0,0
					l0,0c0.3-1.5-0.1-2.9-0.6-4.1c-0.4-1-1-1.9-1.6-2.6l1.4-5.1c0.6,0.6,0.9,1.2,1.1,1.8c0.2,0.6,0.3,1.4,0,2.3l1.1,1.1
					c0.4-1.3,0.3-2.6-0.1-3.9c-0.4-1.1-1-2-1.7-2.9l0.4-1.4l-0.8-0.8l-0.4,1.4c-0.8-0.7-1.6-1.1-2.2-1c-0.8,0.1-1.3,0.8-1.6,1.9
					c-0.2,0.8-0.3,1.5-0.2,2.2c0.1,0.7,0.2,1.4,0.5,2c0.2,0.6,0.5,1.2,0.8,1.7c0.1,0.3,0.3,0.5,0.4,0.7l0,0.1c0,0.1,0.1,0.1,0.1,0.2
					l-1.5,5.4c-0.7-0.8-1.1-1.5-1.2-2.2c-0.2-0.7-0.2-1.6,0.1-2.8l-1.1-1.1c-0.4,1.4-0.5,2.8-0.1,4.3
					C157.3,421.6,158,422.7,158.9,423.7z M160.1,423c0.8,0.7,1.3,0.9,1.7,0.8c0.4-0.1,0.8-0.6,1.1-1.8c0.2-0.9,0-1.7-0.4-2.4
					c-0.3-0.6-0.7-1.2-1.1-1.8L160.1,423z M161.1,415.2l1.3-4.7c-0.6-0.5-1.1-0.7-1.4-0.7c-0.4,0-0.7,0.4-0.9,1.1
					c-0.2,0.6-0.2,1-0.2,1.4c0,0.4,0.1,0.7,0.3,1.1c0.2,0.4,0.4,0.8,0.6,1.2C161,414.8,161.1,415,161.1,415.2z"/>
			</g>
		</g>
	</g>
</g>
<rect class="st24" width="800" height="600"/>
</svg>
